<svg width="427" height="413" viewBox="0 0 427 413" fill="none" xmlns="http://www.w3.org/2000/svg">
<path d="M424.75 196.189C424.75 303.343 334.679 390.284 223.474 390.284C112.27 390.284 22.1987 303.343 22.1987 196.189C22.1987 89.0362 112.27 2.09506 223.474 2.09506C334.679 2.09506 424.75 89.0362 424.75 196.189Z" fill="white" stroke="#EFECEB" stroke-width="2.5"/>
<path d="M393.517 196.579C393.517 286.911 317.585 360.204 223.838 360.204C130.092 360.204 54.1602 286.911 54.1602 196.579C54.1602 106.248 130.092 32.9552 223.838 32.9552C317.585 32.9552 393.517 106.248 393.517 196.579Z" fill="white" stroke="#EFECEB" stroke-width="2.10754"/>
<path d="M358.734 196.647C358.734 270.662 296.518 330.716 219.705 330.716C142.892 330.716 80.6764 270.662 80.6764 196.647C80.6764 122.632 142.892 62.5789 219.705 62.5789C296.518 62.5789 358.734 122.632 358.734 196.647Z" fill="white" stroke="#EFECEB" stroke-width="1.72684"/>
<ellipse cx="397.114" cy="16.3732" rx="15.8968" ry="15.5282" fill="#EBD96B"/>
<ellipse cx="28.9433" cy="17.6155" rx="6.99461" ry="7.45352" fill="#ECE8E7"/>
<ellipse cx="28.9433" cy="17.6155" rx="6.99461" ry="7.45352" fill="#89807A"/>
<ellipse cx="11.1389" cy="402.093" rx="10.8098" ry="10.5592" fill="#EBD96B"/>
<ellipse cx="421.595" cy="347.744" rx="5.40492" ry="5.27958" fill="#89807A"/>
</svg>
